<svg xmlns="http://www.w3.org/2000/svg" width="610" height="282" fill="none" viewBox="0 0 610 282"><g clip-path="url(#clip0_4291_4359)"><g filter="url(#filter0_f_4291_4359)" opacity=".1"><path fill="#fff" d="M188 30.2334L189.732 31.2334L238.866 -55.8691L188 30.2334Z"/></g><rect width="4" height="4" x="201" y="35.593" fill="#fff" opacity=".2"/><rect width="5" height="5" x="278.535" y="197.593" fill="#fff" opacity=".5" transform="rotate(45 278.535 197.593)"/><rect width="4" height="4" x="304.5" y="36.558" fill="#fff" opacity=".2" transform="rotate(45 304.5 36.5576)"/><g filter="url(#filter1_f_4291_4359)" opacity=".1"><path fill="#fff" d="M108 160.233L109.732 161.233L158.866 74.1309L108 160.233Z"/></g><rect width="4" height="4" x="121" y="165.593" fill="#fff" opacity=".2"/><rect width="5" height="5" x="174" y="61.764" fill="#fff" opacity=".5" transform="rotate(45 174 61.7637)"/><rect width="2" height="2" x="210.586" y="89.592" fill="#fff" opacity=".5" transform="rotate(-45 210.586 89.5918)"/><rect width="3" height="3" x="262" y="147.592" fill="#fff" opacity=".1"/><rect width="4" height="4" x="275.828" y="96.592" fill="#fff" opacity=".4" transform="rotate(45 275.828 96.5918)"/><rect width="4" height="4" x="224.5" y="166.557" fill="#fff" opacity=".2" transform="rotate(45 224.5 166.557)"/><rect width="2" height="2" x="137" y="77.592" fill="#fff" opacity=".4"/><g filter="url(#filter2_f_4291_4359)" opacity=".4"><path fill="#fff" d="M151.134 161.754L152.866 162.754L202.5 74.7853L151.134 161.754Z"/></g><g filter="url(#filter3_f_4291_4359)" opacity=".2"><path fill="#fff" d="M219.134 113.755L221.732 115.255L254.933 54.7491L219.134 113.755Z"/></g><g filter="url(#filter4_f_4291_4359)" opacity=".4"><path fill="#fff" d="M181.134 293.755L183.732 295.255L216.933 234.749L181.134 293.755Z"/></g><g filter="url(#filter5_f_4291_4359)" opacity=".05"><path fill="#fff" d="M269.134 173.755L271.732 175.255L304.933 114.749L269.134 173.755Z"/></g><g filter="url(#filter6_f_4291_4359)" opacity=".05"><path fill="#fff" d="M183.134 209.754L185.732 211.254L238.933 116.107L183.134 209.754Z"/></g><g filter="url(#filter7_f_4291_4359)" opacity=".05"><path fill="#fff" d="M303.134 79.7539L305.732 81.2539L358.933 -13.8929L303.134 79.7539Z"/></g><g filter="url(#filter8_f_4291_4359)" opacity=".4"><path fill="#fff" d="M223.134 329.754L225.732 331.254L278.933 236.107L223.134 329.754Z"/></g><g filter="url(#filter9_f_4291_4359)" opacity=".05"><path fill="#fff" d="M338 120.233L339.732 121.233L388.866 34.1309L338 120.233Z"/></g><rect width="4" height="4" x="351" y="125.594" fill="#fff" opacity=".2"/><rect width="5" height="5" x="404" y="21.765" fill="#fff" opacity=".5" transform="rotate(45 404 21.7646)"/><rect width="2" height="2" x="440.586" y="49.594" fill="#fff" opacity=".5" transform="rotate(-45 440.586 49.5938)"/><rect width="3" height="3" x="472" y="37.594" fill="#fff" opacity=".1"/><rect width="4" height="4" x="505.828" y="56.593" fill="#fff" opacity=".4" transform="rotate(45 505.828 56.5928)"/><rect width="4" height="4" x="454.5" y="126.558" fill="#fff" opacity=".2" transform="rotate(45 454.5 126.558)"/><rect width="2" height="2" x="367" y="37.594" fill="#fff" opacity=".4"/><g filter="url(#filter10_f_4291_4359)" opacity=".4"><path fill="#fff" d="M381.134 121.755L382.866 122.755L432.5 34.7863L381.134 121.755Z"/></g><g filter="url(#filter11_f_4291_4359)" opacity=".2"><path fill="#fff" d="M449.134 73.7559L451.732 75.2559L484.933 14.7501L449.134 73.7559Z"/></g><g filter="url(#filter12_f_4291_4359)" opacity=".05"><path fill="#fff" d="M338 230.233L339.732 231.233L388.866 144.131L338 230.233Z"/></g><rect width="4" height="4" x="351" y="235.594" fill="#fff" opacity=".2"/><rect width="5" height="5" x="404" y="131.764" fill="#fff" opacity=".5" transform="rotate(45 404 131.764)"/><rect width="2" height="2" x="440.586" y="159.594" fill="#fff" opacity=".5" transform="rotate(-45 440.586 159.594)"/><rect width="3" height="3" x="472" y="147.592" fill="#fff" opacity=".1"/><rect width="4" height="4" x="505.828" y="166.593" fill="#fff" opacity=".4" transform="rotate(45 505.828 166.593)"/><rect width="4" height="4" x="454.5" y="236.558" fill="#fff" opacity=".2" transform="rotate(45 454.5 236.558)"/><rect width="2" height="2" x="367" y="147.594" fill="#fff" opacity=".4"/><g filter="url(#filter13_f_4291_4359)" opacity=".05"><path fill="#fff" d="M390.134 204.755L391.866 205.755L441.5 117.786L390.134 204.755Z"/></g><rect width="5" height="5" x="324" y="261.764" fill="#fff" opacity=".5" transform="rotate(45 324 261.764)"/><g filter="url(#filter14_f_4291_4359)" opacity=".2"><path fill="#fff" d="M369.134 313.754L371.732 315.254L404.933 254.748L369.134 313.754Z"/></g><g filter="url(#filter15_f_4291_4359)" opacity=".2"><path fill="#fff" d="M449.134 183.755L451.732 185.255L484.933 124.749L449.134 183.755Z"/></g><g filter="url(#filter16_f_4291_4359)" opacity=".05"><path fill="#fff" d="M443.134 289.754L445.732 291.254L498.933 196.107L443.134 289.754Z"/></g><g filter="url(#filter17_f_4291_4359)" opacity=".1"><path fill="#fff" d="M528 100.233L529.732 101.233L578.866 14.1309L528 100.233Z"/></g><rect width="4" height="4" x="541" y="105.594" fill="#fff" opacity=".2"/><rect width="5" height="5" x="594" y="1.765" fill="#fff" opacity=".5" transform="rotate(45 594 1.76465)"/><rect width="2" height="2" x="557" y="17.593" fill="#fff" opacity=".4"/><g filter="url(#filter18_f_4291_4359)" opacity=".4"><path fill="#fff" d="M571.134 101.755L572.866 102.755L622.5 14.7863L571.134 101.755Z"/></g><g filter="url(#filter19_f_4291_4359)" opacity=".1"><path fill="#fff" d="M528 210.233L529.732 211.233L578.866 124.131L528 210.233Z"/></g><rect width="4" height="4" x="541" y="215.594" fill="#fff" opacity=".2"/><rect width="5" height="5" x="594" y="111.764" fill="#fff" opacity=".5" transform="rotate(45 594 111.764)"/><rect width="2" height="2" x="557" y="127.594" fill="#fff" opacity=".4"/><g filter="url(#filter20_f_4291_4359)" opacity=".4"><path fill="#fff" d="M580.134 184.755L581.866 185.755L631.5 97.7863L580.134 184.755Z"/></g><g filter="url(#filter21_f_4291_4359)" opacity=".1"><path fill="#fff" d="M448 340.233L449.732 341.233L498.866 254.131L448 340.233Z"/></g><rect width="5" height="5" x="514" y="241.764" fill="#fff" opacity=".5" transform="rotate(45 514 241.764)"/><rect width="2" height="2" x="477" y="257.592" fill="#fff" opacity=".4"/><g filter="url(#filter22_f_4291_4359)" opacity=".4"><path fill="#fff" d="M491.134 341.753L492.866 342.753L542.5 254.784L491.134 341.753Z"/></g><g filter="url(#filter23_f_4291_4359)" opacity=".2"><path fill="#fff" d="M559.134 293.754L561.732 295.254L594.933 234.748L559.134 293.754Z"/></g><rect width="2" height="2" x="30.586" y="79.593" fill="#fff" opacity=".5" transform="rotate(-45 30.5859 79.5928)"/><rect width="3" height="3" x="62" y="67.593" fill="#fff" opacity=".1"/><rect width="4" height="4" x="95.828" y="86.592" fill="#fff" opacity=".4" transform="rotate(45 95.8281 86.5918)"/><rect width="4" height="4" x="44.5" y="156.557" fill="#fff" opacity=".2" transform="rotate(45 44.5 156.557)"/><g filter="url(#filter24_f_4291_4359)" opacity=".4"><path fill="#fff" d="M-28.8662 151.754L-27.1342 152.754L22.4998 64.7853L-28.8662 151.754Z"/></g><g filter="url(#filter25_f_4291_4359)" opacity=".2"><path fill="#fff" d="M39.1338 103.759L41.7319 105.259L74.9328 44.753L39.1338 103.759Z"/></g><rect width="2" height="2" x="30.586" y="189.593" fill="#fff" opacity=".5" transform="rotate(-45 30.5859 189.593)"/><rect width="3" height="3" x="62" y="177.592" fill="#fff" opacity=".1"/><rect width="4" height="4" x="95.828" y="196.592" fill="#fff" opacity=".4" transform="rotate(45 95.8281 196.592)"/><g filter="url(#filter26_f_4291_4359)" opacity=".4"><path fill="#fff" d="M-19.8662 234.758L-18.1342 235.758L31.4998 147.789L-19.8662 234.758Z"/></g><g filter="url(#filter27_f_4291_4359)" opacity=".2"><path fill="#fff" d="M39.1338 213.758L41.7319 215.258L74.9328 154.752L39.1338 213.758Z"/></g><g filter="url(#filter28_f_4291_4359)" opacity=".5"><path fill="#fff" d="M43.1338 309.757L45.7319 311.257L98.9328 216.11L43.1338 309.757Z"/></g><rect width="5" height="5" x="144" y="251.768" fill="#fff" opacity=".5" transform="rotate(45 144 251.768)"/><g filter="url(#filter29_f_4291_4359)" opacity=".2"><path fill="#fff" d="M189.134 303.759L191.732 305.259L224.933 244.753L189.134 303.759Z"/></g></g><defs><filter id="filter0_f_4291_4359" width="54.866" height="91.103" x="186" y="-57.869" color-interpolation-filters="sRGB" filterUnits="userSpaceOnUse"><feFlood flood-opacity="0" result="BackgroundImageFix"/><feBlend in="SourceGraphic" in2="BackgroundImageFix" mode="normal" result="shape"/><feGaussianBlur result="effect1_foregroundBlur_4291_4359" stdDeviation="1"/></filter><filter id="filter1_f_4291_4359" width="54.866" height="91.103" x="106" y="72.131" color-interpolation-filters="sRGB" filterUnits="userSpaceOnUse"><feFlood flood-opacity="0" result="BackgroundImageFix"/><feBlend in="SourceGraphic" in2="BackgroundImageFix" mode="normal" result="shape"/><feGaussianBlur result="effect1_foregroundBlur_4291_4359" stdDeviation="1"/></filter><filter id="filter2_f_4291_4359" width="55.366" height="91.969" x="149.134" y="72.785" color-interpolation-filters="sRGB" filterUnits="userSpaceOnUse"><feFlood flood-opacity="0" result="BackgroundImageFix"/><feBlend in="SourceGraphic" in2="BackgroundImageFix" mode="normal" result="shape"/><feGaussianBlur result="effect1_foregroundBlur_4291_4359" stdDeviation="1"/></filter><filter id="filter3_f_4291_4359" width="39.799" height="64.506" x="217.134" y="52.749" color-interpolation-filters="sRGB" filterUnits="userSpaceOnUse"><feFlood flood-opacity="0" result="BackgroundImageFix"/><feBlend in="SourceGraphic" in2="BackgroundImageFix" mode="normal" result="shape"/><feGaussianBlur result="effect1_foregroundBlur_4291_4359" stdDeviation="1"/></filter><filter id="filter4_f_4291_4359" width="39.799" height="64.506" x="179.134" y="232.749" color-interpolation-filters="sRGB" filterUnits="userSpaceOnUse"><feFlood flood-opacity="0" result="BackgroundImageFix"/><feBlend in="SourceGraphic" in2="BackgroundImageFix" mode="normal" result="shape"/><feGaussianBlur result="effect1_foregroundBlur_4291_4359" stdDeviation="1"/></filter><filter id="filter5_f_4291_4359" width="39.799" height="64.506" x="267.134" y="112.749" color-interpolation-filters="sRGB" filterUnits="userSpaceOnUse"><feFlood flood-opacity="0" result="BackgroundImageFix"/><feBlend in="SourceGraphic" in2="BackgroundImageFix" mode="normal" result="shape"/><feGaussianBlur result="effect1_foregroundBlur_4291_4359" stdDeviation="1"/></filter><filter id="filter6_f_4291_4359" width="59.799" height="99.147" x="181.134" y="114.107" color-interpolation-filters="sRGB" filterUnits="userSpaceOnUse"><feFlood flood-opacity="0" result="BackgroundImageFix"/><feBlend in="SourceGraphic" in2="BackgroundImageFix" mode="normal" result="shape"/><feGaussianBlur result="effect1_foregroundBlur_4291_4359" stdDeviation="1"/></filter><filter id="filter7_f_4291_4359" width="59.799" height="99.147" x="301.134" y="-15.893" color-interpolation-filters="sRGB" filterUnits="userSpaceOnUse"><feFlood flood-opacity="0" result="BackgroundImageFix"/><feBlend in="SourceGraphic" in2="BackgroundImageFix" mode="normal" result="shape"/><feGaussianBlur result="effect1_foregroundBlur_4291_4359" stdDeviation="1"/></filter><filter id="filter8_f_4291_4359" width="59.799" height="99.147" x="221.134" y="234.107" color-interpolation-filters="sRGB" filterUnits="userSpaceOnUse"><feFlood flood-opacity="0" result="BackgroundImageFix"/><feBlend in="SourceGraphic" in2="BackgroundImageFix" mode="normal" result="shape"/><feGaussianBlur result="effect1_foregroundBlur_4291_4359" stdDeviation="1"/></filter><filter id="filter9_f_4291_4359" width="54.866" height="91.103" x="336" y="32.131" color-interpolation-filters="sRGB" filterUnits="userSpaceOnUse"><feFlood flood-opacity="0" result="BackgroundImageFix"/><feBlend in="SourceGraphic" in2="BackgroundImageFix" mode="normal" result="shape"/><feGaussianBlur result="effect1_foregroundBlur_4291_4359" stdDeviation="1"/></filter><filter id="filter10_f_4291_4359" width="55.366" height="91.969" x="379.134" y="32.786" color-interpolation-filters="sRGB" filterUnits="userSpaceOnUse"><feFlood flood-opacity="0" result="BackgroundImageFix"/><feBlend in="SourceGraphic" in2="BackgroundImageFix" mode="normal" result="shape"/><feGaussianBlur result="effect1_foregroundBlur_4291_4359" stdDeviation="1"/></filter><filter id="filter11_f_4291_4359" width="39.799" height="64.506" x="447.134" y="12.75" color-interpolation-filters="sRGB" filterUnits="userSpaceOnUse"><feFlood flood-opacity="0" result="BackgroundImageFix"/><feBlend in="SourceGraphic" in2="BackgroundImageFix" mode="normal" result="shape"/><feGaussianBlur result="effect1_foregroundBlur_4291_4359" stdDeviation="1"/></filter><filter id="filter12_f_4291_4359" width="54.866" height="91.103" x="336" y="142.131" color-interpolation-filters="sRGB" filterUnits="userSpaceOnUse"><feFlood flood-opacity="0" result="BackgroundImageFix"/><feBlend in="SourceGraphic" in2="BackgroundImageFix" mode="normal" result="shape"/><feGaussianBlur result="effect1_foregroundBlur_4291_4359" stdDeviation="1"/></filter><filter id="filter13_f_4291_4359" width="55.366" height="91.969" x="388.134" y="115.786" color-interpolation-filters="sRGB" filterUnits="userSpaceOnUse"><feFlood flood-opacity="0" result="BackgroundImageFix"/><feBlend in="SourceGraphic" in2="BackgroundImageFix" mode="normal" result="shape"/><feGaussianBlur result="effect1_foregroundBlur_4291_4359" stdDeviation="1"/></filter><filter id="filter14_f_4291_4359" width="39.799" height="64.506" x="367.134" y="252.748" color-interpolation-filters="sRGB" filterUnits="userSpaceOnUse"><feFlood flood-opacity="0" result="BackgroundImageFix"/><feBlend in="SourceGraphic" in2="BackgroundImageFix" mode="normal" result="shape"/><feGaussianBlur result="effect1_foregroundBlur_4291_4359" stdDeviation="1"/></filter><filter id="filter15_f_4291_4359" width="39.799" height="64.506" x="447.134" y="122.749" color-interpolation-filters="sRGB" filterUnits="userSpaceOnUse"><feFlood flood-opacity="0" result="BackgroundImageFix"/><feBlend in="SourceGraphic" in2="BackgroundImageFix" mode="normal" result="shape"/><feGaussianBlur result="effect1_foregroundBlur_4291_4359" stdDeviation="1"/></filter><filter id="filter16_f_4291_4359" width="59.799" height="99.147" x="441.134" y="194.107" color-interpolation-filters="sRGB" filterUnits="userSpaceOnUse"><feFlood flood-opacity="0" result="BackgroundImageFix"/><feBlend in="SourceGraphic" in2="BackgroundImageFix" mode="normal" result="shape"/><feGaussianBlur result="effect1_foregroundBlur_4291_4359" stdDeviation="1"/></filter><filter id="filter17_f_4291_4359" width="54.866" height="91.103" x="526" y="12.131" color-interpolation-filters="sRGB" filterUnits="userSpaceOnUse"><feFlood flood-opacity="0" result="BackgroundImageFix"/><feBlend in="SourceGraphic" in2="BackgroundImageFix" mode="normal" result="shape"/><feGaussianBlur result="effect1_foregroundBlur_4291_4359" stdDeviation="1"/></filter><filter id="filter18_f_4291_4359" width="55.366" height="91.969" x="569.134" y="12.786" color-interpolation-filters="sRGB" filterUnits="userSpaceOnUse"><feFlood flood-opacity="0" result="BackgroundImageFix"/><feBlend in="SourceGraphic" in2="BackgroundImageFix" mode="normal" result="shape"/><feGaussianBlur result="effect1_foregroundBlur_4291_4359" stdDeviation="1"/></filter><filter id="filter19_f_4291_4359" width="54.866" height="91.103" x="526" y="122.131" color-interpolation-filters="sRGB" filterUnits="userSpaceOnUse"><feFlood flood-opacity="0" result="BackgroundImageFix"/><feBlend in="SourceGraphic" in2="BackgroundImageFix" mode="normal" result="shape"/><feGaussianBlur result="effect1_foregroundBlur_4291_4359" stdDeviation="1"/></filter><filter id="filter20_f_4291_4359" width="55.366" height="91.969" x="578.134" y="95.786" color-interpolation-filters="sRGB" filterUnits="userSpaceOnUse"><feFlood flood-opacity="0" result="BackgroundImageFix"/><feBlend in="SourceGraphic" in2="BackgroundImageFix" mode="normal" result="shape"/><feGaussianBlur result="effect1_foregroundBlur_4291_4359" stdDeviation="1"/></filter><filter id="filter21_f_4291_4359" width="54.866" height="91.103" x="446" y="252.131" color-interpolation-filters="sRGB" filterUnits="userSpaceOnUse"><feFlood flood-opacity="0" result="BackgroundImageFix"/><feBlend in="SourceGraphic" in2="BackgroundImageFix" mode="normal" result="shape"/><feGaussianBlur result="effect1_foregroundBlur_4291_4359" stdDeviation="1"/></filter><filter id="filter22_f_4291_4359" width="55.366" height="91.969" x="489.134" y="252.784" color-interpolation-filters="sRGB" filterUnits="userSpaceOnUse"><feFlood flood-opacity="0" result="BackgroundImageFix"/><feBlend in="SourceGraphic" in2="BackgroundImageFix" mode="normal" result="shape"/><feGaussianBlur result="effect1_foregroundBlur_4291_4359" stdDeviation="1"/></filter><filter id="filter23_f_4291_4359" width="39.799" height="64.506" x="557.134" y="232.748" color-interpolation-filters="sRGB" filterUnits="userSpaceOnUse"><feFlood flood-opacity="0" result="BackgroundImageFix"/><feBlend in="SourceGraphic" in2="BackgroundImageFix" mode="normal" result="shape"/><feGaussianBlur result="effect1_foregroundBlur_4291_4359" stdDeviation="1"/></filter><filter id="filter24_f_4291_4359" width="55.366" height="91.969" x="-30.866" y="62.785" color-interpolation-filters="sRGB" filterUnits="userSpaceOnUse"><feFlood flood-opacity="0" result="BackgroundImageFix"/><feBlend in="SourceGraphic" in2="BackgroundImageFix" mode="normal" result="shape"/><feGaussianBlur result="effect1_foregroundBlur_4291_4359" stdDeviation="1"/></filter><filter id="filter25_f_4291_4359" width="39.799" height="64.506" x="37.134" y="42.753" color-interpolation-filters="sRGB" filterUnits="userSpaceOnUse"><feFlood flood-opacity="0" result="BackgroundImageFix"/><feBlend in="SourceGraphic" in2="BackgroundImageFix" mode="normal" result="shape"/><feGaussianBlur result="effect1_foregroundBlur_4291_4359" stdDeviation="1"/></filter><filter id="filter26_f_4291_4359" width="55.366" height="91.969" x="-21.866" y="145.789" color-interpolation-filters="sRGB" filterUnits="userSpaceOnUse"><feFlood flood-opacity="0" result="BackgroundImageFix"/><feBlend in="SourceGraphic" in2="BackgroundImageFix" mode="normal" result="shape"/><feGaussianBlur result="effect1_foregroundBlur_4291_4359" stdDeviation="1"/></filter><filter id="filter27_f_4291_4359" width="39.799" height="64.506" x="37.134" y="152.752" color-interpolation-filters="sRGB" filterUnits="userSpaceOnUse"><feFlood flood-opacity="0" result="BackgroundImageFix"/><feBlend in="SourceGraphic" in2="BackgroundImageFix" mode="normal" result="shape"/><feGaussianBlur result="effect1_foregroundBlur_4291_4359" stdDeviation="1"/></filter><filter id="filter28_f_4291_4359" width="59.799" height="99.147" x="41.134" y="214.11" color-interpolation-filters="sRGB" filterUnits="userSpaceOnUse"><feFlood flood-opacity="0" result="BackgroundImageFix"/><feBlend in="SourceGraphic" in2="BackgroundImageFix" mode="normal" result="shape"/><feGaussianBlur result="effect1_foregroundBlur_4291_4359" stdDeviation="1"/></filter><filter id="filter29_f_4291_4359" width="39.799" height="64.506" x="187.134" y="242.753" color-interpolation-filters="sRGB" filterUnits="userSpaceOnUse"><feFlood flood-opacity="0" result="BackgroundImageFix"/><feBlend in="SourceGraphic" in2="BackgroundImageFix" mode="normal" result="shape"/><feGaussianBlur result="effect1_foregroundBlur_4291_4359" stdDeviation="1"/></filter><clipPath id="clip0_4291_4359"><rect width="610" height="282" fill="#fff"/></clipPath></defs></svg>