<svg xmlns="http://www.w3.org/2000/svg" width="596" height="53" fill="none" viewBox="0 0 596 53"><g filter="url(#filter0_f_3025_18146)" opacity=".1"><path fill="#fff" d="M25 29.6406L26.7321 30.6406L45.866 -4.50039L25 29.6406Z"/></g><rect width="2" height="2" y="5" fill="#fff" opacity=".2"/><rect width="4" height="4" fill="#fff" opacity=".5" transform="matrix(0.707107 0.707106 -0.707107 0.707106 60 17.1719)"/><rect width="2" height="2" fill="#fff" opacity=".5" transform="matrix(0.707107 -0.707106 0.707107 0.707106 107.586 29)"/><rect width="3" height="3" x="129" y="7" fill="#fff" opacity=".1"/><rect width="4" height="4" fill="#fff" opacity=".4" transform="matrix(0.707107 0.707106 -0.707107 0.707106 162.828 26)"/><rect width="4" height="4" fill="#fff" opacity=".2" transform="matrix(0.707107 0.707106 -0.707107 0.707106 211.5 25.9629)"/><rect width="2" height="2" x="11" y="27" fill="#fff" opacity=".4"/><g filter="url(#filter1_f_3025_18146)" opacity=".4"><path fill="#fff" d="M80.1338 40.1621L82.7319 41.6621L95.9328 15.7974L80.1338 40.1621Z"/></g><g filter="url(#filter2_f_3025_18146)" opacity=".2"><path fill="#fff" d="M146.134 13.1621L148.732 14.6621L161.933 -11.2026L146.134 13.1621Z"/></g><g filter="url(#filter3_f_3025_18146)" opacity=".05"><path fill="#fff" d="M170.134 49.1621L172.732 50.6621L195.933 7.47686L170.134 49.1621Z"/></g><g filter="url(#filter4_f_3025_18146)" opacity=".2"><path fill="#fff" d="M424.135 29.1602L425.867 30.1602L445.001 -4.98086L424.135 29.1602Z"/></g><rect width="2" height="2" x="398.001" y="5" fill="#fff" opacity=".2"/><rect width="4" height="4" fill="#fff" opacity=".2" transform="matrix(0.707107 0.707106 -0.707107 0.707106 259.004 -1.83008)"/><rect width="2" height="2" fill="#fff" opacity=".2" transform="matrix(0.707107 -0.707106 0.707107 0.707106 505.586 29)"/><rect width="3" height="3" x="316" y="32" fill="#fff" opacity=".4"/><rect width="4" height="4" fill="#fff" opacity=".5" transform="matrix(0.707107 0.707106 -0.707107 0.707106 559.5 25.9629)"/><rect width="2" height="2" x="409.001" y="27" fill="#fff" opacity=".5"/><g filter="url(#filter5_f_3025_18146)" opacity=".4"><path fill="#fff" d="M478.134 40.1621L480.732 41.6621L493.933 15.7974L478.134 40.1621Z"/></g><g filter="url(#filter6_f_3025_18146)" opacity=".1"><path fill="#fff" d="M544.134 13.1621L546.732 14.6621L559.933 -11.2026L544.134 13.1621Z"/></g><g filter="url(#filter7_f_3025_18146)" opacity=".05"><path fill="#fff" d="M568.134 49.1621L570.732 50.6621L593.933 7.47687L568.134 49.1621Z"/></g><defs><filter id="filter0_f_3025_18146" width="24.866" height="39.141" x="23" y="-6.5" color-interpolation-filters="sRGB" filterUnits="userSpaceOnUse"><feFlood flood-opacity="0" result="BackgroundImageFix"/><feBlend in="SourceGraphic" in2="BackgroundImageFix" mode="normal" result="shape"/><feGaussianBlur result="effect1_foregroundBlur_3025_18146" stdDeviation="1"/></filter><filter id="filter1_f_3025_18146" width="19.799" height="29.865" x="78.134" y="13.797" color-interpolation-filters="sRGB" filterUnits="userSpaceOnUse"><feFlood flood-opacity="0" result="BackgroundImageFix"/><feBlend in="SourceGraphic" in2="BackgroundImageFix" mode="normal" result="shape"/><feGaussianBlur result="effect1_foregroundBlur_3025_18146" stdDeviation="1"/></filter><filter id="filter2_f_3025_18146" width="19.799" height="29.865" x="144.134" y="-13.203" color-interpolation-filters="sRGB" filterUnits="userSpaceOnUse"><feFlood flood-opacity="0" result="BackgroundImageFix"/><feBlend in="SourceGraphic" in2="BackgroundImageFix" mode="normal" result="shape"/><feGaussianBlur result="effect1_foregroundBlur_3025_18146" stdDeviation="1"/></filter><filter id="filter3_f_3025_18146" width="29.799" height="47.185" x="168.134" y="5.477" color-interpolation-filters="sRGB" filterUnits="userSpaceOnUse"><feFlood flood-opacity="0" result="BackgroundImageFix"/><feBlend in="SourceGraphic" in2="BackgroundImageFix" mode="normal" result="shape"/><feGaussianBlur result="effect1_foregroundBlur_3025_18146" stdDeviation="1"/></filter><filter id="filter4_f_3025_18146" width="24.866" height="39.141" x="422.135" y="-6.98" color-interpolation-filters="sRGB" filterUnits="userSpaceOnUse"><feFlood flood-opacity="0" result="BackgroundImageFix"/><feBlend in="SourceGraphic" in2="BackgroundImageFix" mode="normal" result="shape"/><feGaussianBlur result="effect1_foregroundBlur_3025_18146" stdDeviation="1"/></filter><filter id="filter5_f_3025_18146" width="19.799" height="29.865" x="476.134" y="13.797" color-interpolation-filters="sRGB" filterUnits="userSpaceOnUse"><feFlood flood-opacity="0" result="BackgroundImageFix"/><feBlend in="SourceGraphic" in2="BackgroundImageFix" mode="normal" result="shape"/><feGaussianBlur result="effect1_foregroundBlur_3025_18146" stdDeviation="1"/></filter><filter id="filter6_f_3025_18146" width="19.799" height="29.865" x="542.134" y="-13.203" color-interpolation-filters="sRGB" filterUnits="userSpaceOnUse"><feFlood flood-opacity="0" result="BackgroundImageFix"/><feBlend in="SourceGraphic" in2="BackgroundImageFix" mode="normal" result="shape"/><feGaussianBlur result="effect1_foregroundBlur_3025_18146" stdDeviation="1"/></filter><filter id="filter7_f_3025_18146" width="29.799" height="47.185" x="566.134" y="5.477" color-interpolation-filters="sRGB" filterUnits="userSpaceOnUse"><feFlood flood-opacity="0" result="BackgroundImageFix"/><feBlend in="SourceGraphic" in2="BackgroundImageFix" mode="normal" result="shape"/><feGaussianBlur result="effect1_foregroundBlur_3025_18146" stdDeviation="1"/></filter></defs></svg>